<?xml version="1.0" encoding="utf-8"?>
<!-- Generator: Adobe Illustrator 21.1.0, SVG Export Plug-In . SVG Version: 6.00 Build 0)  -->
<svg version="1.1" id="Layer_1" xmlns="http://www.w3.org/2000/svg" xmlns:xlink="http://www.w3.org/1999/xlink" x="0px" y="0px"
	 viewBox="0 0 1366 768" style="enable-background:new 0 0 1366 768;" xml:space="preserve">
<style type="text/css">
	.st0{fill:none;stroke:#000000;stroke-miterlimit:10;}
</style>
<path class="st0" d="M219.5,520l341,93l622-144l-354,39c-8.4,1.4-16.1,1.2-23-1c-60-17.8-177-51.5-180-53.5s-2.6-2.2-4-4
	c-2.6-3.4-3.6-6.9-4-9c-13-89.2-26-178.3-39-267.5c-0.3-12.1,3.4-18.5,12-18c105,5.8,210,11.7,315,17.5c1.1,0,4.1,0,7,2
	c4.1,2.8,4.9,7.2,5,8c14.7,78.5,29.3,157,44,235.5c74.3,13.2,148.7,26.3,223,39.5c0,3.3,0,6.7,0,10"/>
<polyline class="st0" points="955.5,424.5 1040.5,440.5 766.5,465.5 688.5,444.5 953.5,425.5 "/>
<polyline class="st0" points="948.5,476.5 881.5,460.5 985.5,451.5 1054.5,465.5 952.5,476.5 "/>
<polyline class="st0" points="594.5,171.5 631.5,424.5 948.5,405.5 910.5,187.5 597.5,172.5 "/>
<polyline class="st0" points="220.5,551.5 560.5,652.5 1189.5,486.5 "/>
<polyline class="st0" points="221.5,637.5 482.5,740.5 484,629.8 "/>
<polyline class="st0" points="1189.5,550.5 646.5,740.5 646.5,629.8 "/>
<line class="st0" x1="561.5" y1="652.5" x2="561.5" y2="746.5"/>
<line class="st0" x1="1189.5" y1="369.5" x2="948.5" y2="348"/>
<path class="st0" d="M427.5,345.5l7,105l82-3l6-103c-6.8-8-74.2-7.8-95-3c-3.6,6.3,79.2,6.2,92,4"/>
<line class="st0" x1="220.5" y1="397.5" x2="429.8" y2="380.3"/>
<line class="st0" x1="521" y1="371" x2="606" y2="361.3"/>
</svg>
